<?xml version="1.0" standalone="no"?>
<!DOCTYPE svg PUBLIC "-//W3C//DTD SVG 20010904//EN"
 "http://www.w3.org/TR/2001/REC-SVG-20010904/DTD/svg10.dtd">
<svg version="1.0" xmlns="http://www.w3.org/2000/svg"
 width="130.000000pt" height="130.000000pt" viewBox="0 0 1200.000000 1200.000000"
 preserveAspectRatio="xMidYMid meet">

<g transform="translate(0.000000,1200.000000) scale(0.100000,-0.100000)"
fill="#4A90E2" stroke="none">
<path d="M1695 11656 c-253 -42 -494 -139 -692 -279 -106 -75 -280 -245 -355
-347 -552 -749 -363 -1790 417 -2299 155 -102 344 -178 548 -223 88 -20 131
-23 317 -22 184 0 230 3 316 22 184 40 382 119 522 209 30 19 58 33 63 31 9
-3 487 -467 870 -844 l226 -223 -59 -82 c-423 -592 -523 -1389 -261 -2082 25
-65 43 -120 41 -121 -9 -7 -1035 -713 -1046 -720 -8 -4 -37 8 -75 32 -134 85
-280 144 -437 178 -118 25 -372 25 -490 0 -193 -41 -371 -124 -526 -245 -236
-182 -395 -438 -460 -741 -25 -118 -25 -372 0 -490 108 -501 481 -878 978
-986 117 -25 326 -30 449 -10 272 45 494 159 690 355 256 256 380 573 366 930
-7 195 -45 348 -123 503 l-36 72 28 20 c61 45 940 649 949 652 6 2 21 -13 35
-33 40 -60 287 -304 375 -370 293 -220 648 -380 962 -433 70 -11 72 -12 67
-38 -6 -38 -164 -1422 -164 -1443 0 -13 -11 -20 -37 -25 -593 -102 -1013 -621
-979 -1209 17 -303 126 -546 340 -761 183 -182 388 -288 636 -329 704 -114
1351 438 1350 1150 -1 461 -290 897 -712 1071 -76 32 -87 39 -83 58 2 11 41
343 85 736 44 393 83 724 85 735 4 18 19 23 128 38 631 86 1210 447 1561 975
26 40 49 72 52 72 5 0 952 -408 975 -420 15 -9 15 -17 -4 -102 -18 -78 -21
-127 -21 -308 0 -185 3 -229 22 -317 140 -645 614 -1115 1262 -1254 89 -20
135 -23 305 -23 224 0 319 15 511 79 533 177 935 633 1055 1193 27 127 36 374
19 508 -55 445 -294 851 -651 1107 -106 76 -316 183 -431 221 -193 63 -407 88
-620 74 -483 -32 -943 -299 -1215 -707 -1 -2 -225 93 -498 210 -386 167 -494
217 -489 229 18 48 65 253 81 351 25 160 25 511 0 664 -55 330 -176 643 -352
906 l-76 114 33 30 c31 28 407 364 1348 1204 212 189 395 353 408 364 l22 21
90 -48 c186 -98 357 -140 570 -140 164 1 275 20 421 73 394 144 692 505 765
926 24 135 15 369 -19 496 -116 439 -437 760 -876 876 -130 34 -363 43 -496
19 -510 -94 -890 -474 -986 -986 -18 -98 -16 -319 4 -423 22 -110 67 -240 119
-339 22 -42 37 -82 33 -88 -3 -5 -409 -370 -901 -810 l-895 -800 -57 43 c-237
182 -538 328 -827 401 -297 75 -659 86 -953 30 -331 -63 -653 -203 -913 -395
-44 -33 -85 -59 -90 -57 -12 4 -1077 1041 -1078 1050 -1 4 21 40 48 80 127
191 215 423 251 663 17 111 15 351 -4 465 -108 664 -600 1179 -1261 1320 -128
28 -428 36 -550 16z m507 -539 c303 -80 563 -296 698 -580 84 -176 120 -382
100 -566 -47 -425 -318 -771 -717 -914 -156 -56 -383 -74 -550 -42 -415 79
-740 382 -850 793 -24 87 -27 115 -27 267 0 152 3 180 27 267 98 365 375 656
727 762 129 39 181 45 345 42 122 -3 168 -8 247 -29z m7938 -158 c121 -33 204
-83 300 -179 141 -140 201 -284 201 -480 0 -120 -16 -192 -65 -295 -87 -184
-248 -318 -446 -372 -103 -28 -273 -23 -375 10 -111 37 -197 90 -280 172 -82
83 -135 169 -172 280 -33 102 -38 273 -10 374 53 196 182 353 362 441 110 54
171 69 300 69 82 1 129 -4 185 -20z m-4105 -2959 c238 -51 477 -154 665 -288
122 -86 316 -280 403 -402 123 -174 240 -440 281 -640 44 -216 46 -481 6 -684
-121 -614 -556 -1109 -1147 -1306 -444 -147 -906 -112 -1323 100 -581 296
-940 886 -940 1540 1 813 591 1525 1390 1679 151 29 155 29 370 26 151 -3 217
-8 295 -25z m4224 -2620 c455 -47 826 -366 942 -812 27 -105 37 -315 19 -426
-68 -426 -377 -766 -798 -879 -87 -24 -115 -27 -267 -27 -152 0 -180 3 -267
27 -422 113 -730 453 -798 880 -18 110 -8 329 20 432 64 238 206 449 398 595
139 106 354 191 527 209 115 12 113 12 224 1z m-8204 -1020 c204 -63 358 -195
450 -385 53 -109 75 -205 75 -322 0 -216 -105 -438 -268 -569 -75 -60 -220
-130 -307 -149 -92 -19 -228 -19 -318 1 -92 20 -236 90 -307 148 -113 94 -196
219 -242 366 -30 97 -32 288 -5 390 59 217 224 406 430 493 38 16 99 35 136
43 94 19 266 12 356 -16z m3470 -2290 c399 -124 576 -587 363 -948 -44 -76
-149 -179 -228 -225 -107 -62 -186 -82 -325 -82 -139 0 -218 20 -325 82 -79
46 -184 149 -228 225 -202 341 -53 785 311 929 135 54 297 61 432 19z"/>
</g>
</svg>
